<svg xmlns="http://www.w3.org/2000/svg" width="23" height="23" viewBox="0 0 23 23"><g><g><path fill="#232323" d="M22.45 11.204c0 6.2-5.022 11.222-11.218 11.222-6.195 0-11.219-5.023-11.219-11.222C.013 5.006 5.037-.018 11.232-.018c6.196 0 11.219 5.024 11.219 11.222zm-9.049-2.357c.272.583.525 1.192.769 1.813 1.944-.184 4.363-.186 6.383-.078a9.307 9.307 0 0 0-2.203-5.43c-.982 1.451-2.706 2.726-4.949 3.695zM8.933 2.15c1.332 1.365 2.58 3.096 3.668 5.104 1.988-.844 3.58-1.961 4.595-3.248a9.303 9.303 0 0 0-5.964-2.152c-.795 0-1.562.108-2.3.296zM2.176 8.899c.476.027.956.046 1.444.046 2.579 0 4.998-.371 7.11-1.014-1.11-2-2.377-3.716-3.728-5.058a9.37 9.37 0 0 0-4.826 6.026zm-.293 2.305a9.31 9.31 0 0 0 2.337 6.172c1.375-2.637 3.91-4.818 7.13-6.167.23-.096.515-.178.836-.252-.201-.487-.412-.96-.632-1.422-2.352.756-5.097 1.213-8.04 1.25a29.709 29.709 0 0 1-1.615-.027c-.007.148-.016.296-.016.446zm12.658 8.738a33.585 33.585 0 0 0-1.757-7.44c-.402.088-.751.187-1.017.308-2.8 1.27-5.02 3.309-6.264 5.774a9.28 9.28 0 0 0 9.039 1.358zm5.98-7.704c-1.745-.127-3.945-.15-5.778 0 .243.72.471 1.457.67 2.217.41 1.567.696 3.108.872 4.61a9.346 9.346 0 0 0 4.235-6.827z"/></g></g></svg>
