<svg xmlns="http://www.w3.org/2000/svg" width="60" height="60" viewBox="0 0 60 60"><g><g><g><path fill="#26e6e6" d="M46 34a1 1 0 0 1 1 1v14a1 1 0 0 1-2 0V35a1 1 0 0 1 1-1zM14 50a1 1 0 0 1-1-1v-6a1 1 0 0 1 2 0v6a1 1 0 0 1-1 1zm16-28a1 1 0 0 1 1 1v26a1 1 0 0 1-2 0V23a1 1 0 0 1 1-1z"/></g><g><path fill="#2f3238" d="M59 60a1 1 0 0 1-1-1V4a2 2 0 0 0-2-2H4a2 2 0 0 0-2 2v52a2 2 0 0 0 2 2h49a1 1 0 1 1 0 2H4a4 4 0 0 1-4-4V4a4 4 0 0 1 4-4h52a4 4 0 0 1 4 4v55a1 1 0 0 1-1 1zM46 22a4 4 0 1 1 0 8 4 4 0 0 1 0-8zm-2 4a2 2 0 1 0 4 0 2 2 0 0 0-4 0zm2-16a1 1 0 0 1 1 1v6a1 1 0 0 1-2 0v-6a1 1 0 0 1 1-1zM14 38a4 4 0 1 1 0-8 4 4 0 0 1 0 8zm2-4a2 2 0 1 0-4 0 2 2 0 0 0 4 0zm-2-8a1 1 0 0 1-1-1V11a1 1 0 0 1 2 0v14a1 1 0 0 1-1 1zm16-8a4 4 0 1 1 0-8 4 4 0 0 1 0 8zm2-4a2 2 0 1 0-4 0 2 2 0 0 0 4 0z"/></g></g></g></svg>