<svg xmlns="http://www.w3.org/2000/svg" width="56" height="56" viewBox="0 0 56 56"><g><g><g><path fill="#26e6e6" d="M55.375 24a1 1 0 0 1-1 1H32a1 1 0 0 1-1-1V1.625a1 1 0 1 1 2 0V23h20.09C51.004 14.908 45.402 8.24 38 4.722c0 0-.379-.164-.548-.314A.982.982 0 0 1 37 3.593a1 1 0 0 1 1-1c.179 0 .337.06.482.142.004 0 .008-.005.012-.003C47.068 6.666 53.472 14.515 55.397 24z"/></g><g><path fill="#2f3238" d="M51.19 36.313C48.369 47.616 38.178 56 26 56 11.64 56 0 44.359 0 30 0 15.978 11.108 4.58 25 4.05v.012c.16 0 .312.038.446.105A1 1 0 0 1 27 5v24h24a1 1 0 0 1 0 2H26.395L14.677 42.717a.986.986 0 1 1-1.395-1.394L25 29.605V6.062c-.015 0-.027-.007-.041-.008C12.19 6.603 1.999 17.096 1.999 30c0 13.255 10.746 24 24 24 11.178 0 20.532-7.656 23.198-18 0 0 .027-.128.07-.235a.986.986 0 0 1 .952-.765 1 1 0 0 1 1 1c0 .103 0 .198-.028.313z"/></g></g></g></svg>