<svg xmlns="http://www.w3.org/2000/svg" width="38" height="60" viewBox="0 0 38 60"><g><g><g><path fill="#2f3238" d="M4 0h30a4 4 0 0 1 4 4v52a4 4 0 0 1-4 4H4a4 4 0 0 1-4-4V4a4 4 0 0 1 4-4zM2 4v44h29a1 1 0 0 1 0 2H2v6a2 2 0 0 0 2 2h30a2 2 0 0 0 2-2V12H7a1 1 0 0 1 0-2h29V4a2 2 0 0 0-2-2H4a2 2 0 0 0-2 2z"/></g><g><path fill="#26e6e6" d="M19 52a2 2 0 1 1 0 4 2 2 0 0 1 0-4zM16 5h6a1 1 0 0 1 0 2h-6a1 1 0 1 1 0-2zM6.285 20.356l4.073-4.073a.96.96 0 1 1 1.357 1.358l-4.073 4.072a.96.96 0 1 1-1.357-1.357zm0 6l10.073-10.073a.96.96 0 1 1 1.357 1.358L7.642 27.715a.96.96 0 1 1-1.357-1.358z"/></g></g></g></svg>