<svg xmlns="http://www.w3.org/2000/svg" width="24" height="20" viewBox="0 0 24 20"><g><g opacity=".2"><path fill="#fff" d="M23.343 2.8a9.569 9.569 0 0 1-2.75.755 4.804 4.804 0 0 0 2.105-2.65c-.925.548-1.95.947-3.041 1.162a4.79 4.79 0 0 0-8.16 4.37c-3.981-.2-7.51-2.108-9.872-5.006a4.772 4.772 0 0 0-.648 2.408c0 1.662.845 3.128 2.13 3.987a4.77 4.77 0 0 1-2.169-.599v.06c0 2.321 1.65 4.257 3.84 4.697a4.804 4.804 0 0 1-2.162.082 4.793 4.793 0 0 0 4.474 3.327 9.604 9.604 0 0 1-5.948 2.051c-.387 0-.768-.023-1.142-.067A13.558 13.558 0 0 0 7.34 19.53c8.809 0 13.626-7.3 13.626-13.63 0-.207-.004-.414-.013-.62a9.723 9.723 0 0 0 2.39-2.479z"/></g></g></svg>