<?xml version="1.0" encoding="utf-8"?><svg xmlns="http://www.w3.org/2000/svg" xmlns:xlink="http://www.w3.org/1999/xlink"><symbol viewBox="0 0 98 79" id="Logo2" xmlns="http://www.w3.org/2000/svg"><path d="M0 0l8 79 75-7 15-61z" clip-path="url(#a)"/><path d="M4 5l74 62"/></symbol><symbol viewBox="0 0 23 23" id="ball" xmlns="http://www.w3.org/2000/svg"><path d="M22.45 11.204c0 6.2-5.022 11.222-11.218 11.222-6.195 0-11.219-5.023-11.219-11.222C.013 5.006 5.037-.018 11.232-.018c6.196 0 11.219 5.024 11.219 11.222zm-9.049-2.357c.272.583.525 1.192.769 1.813 1.944-.184 4.363-.186 6.383-.078a9.307 9.307 0 00-2.203-5.43c-.982 1.451-2.706 2.726-4.949 3.695zM8.933 2.15c1.332 1.365 2.58 3.096 3.668 5.104 1.988-.844 3.58-1.961 4.595-3.248a9.303 9.303 0 00-5.964-2.152c-.795 0-1.562.108-2.3.296zM2.176 8.899c.476.027.956.046 1.444.046 2.579 0 4.998-.371 7.11-1.014-1.11-2-2.377-3.716-3.728-5.058a9.37 9.37 0 00-4.826 6.026zm-.293 2.305a9.31 9.31 0 002.337 6.172c1.375-2.637 3.91-4.818 7.13-6.167.23-.096.515-.178.836-.252-.201-.487-.412-.96-.632-1.422-2.352.756-5.097 1.213-8.04 1.25a29.709 29.709 0 01-1.615-.027c-.007.148-.016.296-.016.446zm12.658 8.738a33.585 33.585 0 00-1.757-7.44c-.402.088-.751.187-1.017.308-2.8 1.27-5.02 3.309-6.264 5.774a9.28 9.28 0 009.039 1.358zm5.98-7.704c-1.745-.127-3.945-.15-5.778 0 .243.72.471 1.457.67 2.217.41 1.567.696 3.108.872 4.61a9.346 9.346 0 004.235-6.827z"/></symbol><symbol viewBox="0 0 23 14" id="be" xmlns="http://www.w3.org/2000/svg"><path d="M10.44 1.502c.417.58.627 1.273.627 2.082 0 .833-.21 1.502-.632 2.01-.235.283-.583.543-1.041.777.696.253 1.222.654 1.577 1.203.353.551.532 1.217.532 2 0 .81-.203 1.534-.61 2.177a3.756 3.756 0 01-2.507 1.759 9.402 9.402 0 01-1.928.185H.31V.047h6.594c1.663.024 2.841.51 3.535 1.455zm-7.408.916v3.01h3.316c.592 0 1.074-.114 1.444-.34.37-.224.554-.625.554-1.197 0-.637-.245-1.057-.734-1.26-.42-.143-.958-.213-1.611-.213zm0 5.268v3.638h3.313c.591 0 1.052-.079 1.382-.239.598-.298.896-.865.896-1.702 0-.712-.29-1.2-.869-1.466-.324-.149-.779-.225-1.364-.231zm16.72-3.88a4.101 4.101 0 011.742 1.495c.415.6.683 1.295.806 2.085.07.464.1 1.133.086 2.003h-7.35c.043 1.014.394 1.722 1.056 2.13.403.254.888.38 1.455.38.6 0 1.088-.155 1.464-.464.205-.166.386-.398.543-.694h2.695c-.072.599-.399 1.207-.979 1.825-.904.981-2.17 1.471-3.796 1.471-1.343 0-2.527-.413-3.554-1.241-1.027-.825-1.54-2.175-1.54-4.04 0-1.75.464-3.09 1.39-4.024.926-.93 2.13-1.397 3.608-1.397.879 0 1.67.157 2.373.471zm-3.947 2.28c-.372.385-.608.907-.704 1.562h4.546c-.047-.701-.282-1.23-.703-1.593-.42-.364-.942-.543-1.564-.543-.678 0-1.203.19-1.575.574zm4.461-3.705H14.42V.684h5.847z"/></symbol><symbol viewBox="0 0 20 12" id="burger" xmlns="http://www.w3.org/2000/svg"><path d="M0 0h20v2H0zm0 5h20v2H0zm0 5h20v2H0z"/></symbol><symbol viewBox="0 0 60 43" id="card" xmlns="http://www.w3.org/2000/svg"><path d="M45 43H20a4 4 0 01-4-4c0-.733.211-1.41.555-2H16a4 4 0 01-4-4H4a4 4 0 01-4-4V1a1 1 0 012 0v28a2 2 0 002 2h32a2 2 0 002-2 1 1 0 112 0 4 4 0 01-4 4H14a2 2 0 002 2h16v2H20a2 2 0 000 4h25c7.18 0 13-5.821 13-13 0-7.18-5.82-13-13-13H30a2 2 0 000 4h10a7 7 0 007 7 1 1 0 110 2c-4.283 0-7.868-2.993-8.777-7H30a4 4 0 110-8h8V4a2 2 0 00-2-2H7a1 1 0 010-2h29a4 4 0 014 4v9h5c8.284 0 15 6.715 15 15 0 8.283-6.716 15-15 15zM7 6h26a1 1 0 010 2H7a1 1 0 010-2z"/><path d="M7 12h14a1 1 0 010 1.999H7a1 1 0 110-2zm0 13h26a1 1 0 110 2H7a1 1 0 110-2z"/></symbol><symbol viewBox="0 0 60 45" id="cart" xmlns="http://www.w3.org/2000/svg"><path d="M23 37a4 4 0 110 8 4 4 0 010-8zm-2 4a2 2 0 104 0 2 2 0 00-4 0zm28-4a4 4 0 110 8 4 4 0 010-8zm-2 4a2 2 0 104 0 2 2 0 00-4 0zM1 0h9.778a.946.946 0 01.526.047 1 1 0 01.692 1.04L19.786 31h31.456l6.445-24H19a1 1 0 110-2h39.858a.999.999 0 01.99.47.995.995 0 01.074.917l-6.95 25.882a1 1 0 01-1.1.73h-32.65a.944.944 0 01-.53-.047 1 1 0 01-.688-1.04L10.214 2H1a1 1 0 110-2zm31 40h8a1 1 0 010 2h-8a1 1 0 110-2z"/><path d="M33 11a1 1 0 011 1v3h4v-3a1 1 0 112 0v3h3a1 1 0 010 2h-3v4h3a1 1 0 110 2h-3v3a1 1 0 11-2 0v-3h-4v3a1 1 0 11-2 0v-3h-3a1 1 0 010-2h3v-4h-3a1 1 0 010-2h3v-3a1 1 0 011-1zm5 6h-4v4h4z"/></symbol><symbol viewBox="0 0 60 60" id="case" xmlns="http://www.w3.org/2000/svg"><path d="M59 60a1 1 0 01-1-1V16a2 2 0 00-2-2H4a2 2 0 00-2 2v40a2 2 0 002 2h49a1 1 0 110 2H4a4 4 0 01-4-4V16a4 4 0 014-4h34V4a2 2 0 00-2-2H24a2 2 0 00-2 2v3a1 1 0 11-2 0V4a4 4 0 014-4h12a4 4 0 014 4v8h16a4 4 0 014 4v43a1 1 0 01-1 1z"/><path d="M17 18a1 1 0 011 1v34a1 1 0 11-2 0V19a1 1 0 011-1zm-6 0a1 1 0 011 1v34a1 1 0 11-2 0V19a1 1 0 011-1zm38 0a1 1 0 011 1v34a1 1 0 11-2 0V19a1 1 0 011-1zm-6 0a1 1 0 011 1v34a1 1 0 11-2 0V19a1 1 0 011-1z"/></symbol><symbol viewBox="0 0 118 38" id="craft-work" xmlns="http://www.w3.org/2000/svg"><path d="M53.509 26.024c.084.243-.355 1.153-.355 1.153s-.958 2.538-4.725 2.514c-.552-.004-4.31-.416-2.634-5.34.247-.725 1.345-4.578 2.61-8.76-.276.012-.54.02-.788.02l-3.55.001c.3 2.658.457 3.148.404 6.06-.028 1.54-.38 9.457-2.215 12.791-1.543 2.805-3.035 3.266-4.026 3.475-.944.198-2.934-.018-3.682-1.42-.936-1.752.06-4.941.06-4.941l2.156-6.438c-1.15 2.2-2.86 4.488-4.953 4.347-2.162-.145-2.215-1.793-2.215-1.793s-1.247 1.9-3.732 1.793c-3.157-.136-3.38-2.278-3.38-2.278s-2.312 2.332-4.188 2.278c-.793-.023-1.716-.018-2.394-.875-.714-.901-.487-2.12-.087-3.294.646-1.897.98-2.918 1.235-3.877-.103.105-.85 1.348-2.436 1.492-.353.032-.789.04-1.09-.006-.765 3.265-2.27 4.982-3.398 5.721-2.506 1.641-6.566 1.41-8.55-.926C.027 25.9-.526 23.05.578 19.103c.958-3.425 2.937-5.605 3.88-6.53 2.485-2.433 4.85-3.023 7.273-2.732 1.544.186 4.33 1.273 4.602 3.897a11.201 11.201 0 011.862-1.128c3.352-1.615 6.872-.793 11.254-.23 4.217.542 7.721.614 11.43.344.214-.611.418-1.168.418-1.168s1.617-5.165 2.48-7.9c.45-1.42.902-2.215 1.584-2.635 1.085-.668 2.84-.506 3.483.378.52.714.983 2.647-.613 5.43-.829 1.445-2.336 4.131-2.863 4.727l-.388.75a150.883 150.883 0 004.644-.666c1.19-3.762 2.34-7.065 2.926-7.77.48-.578 1.848-1.307 2.758-1.75.5-.245.718.134.718.134l-2.674 8.743c4.695-.882 6.984-1.617 6.984-1.617s-.957 2.538-2.633 4.154c-.669.644-3.14 1.284-5.683 1.68-1.472 4.39-2.284 6.958-2.529 7.772-.419 1.391-1.845 4.872-.169 4.883.945.007 1.103-1.63 1.437-1.845.718-.462 2.51-.693 2.749 0zM44.62 11.529c.219-.328 1.257-2.106 1.83-2.976 1.596-2.425 2.194-5.02 1.915-5.77-.279-.748-.904-.045-1.165.773-.6 1.881-2.043 6.407-2.58 7.973zm-32.18 7.624c-.37-.374-1.454-.35-1.258.788.24 1.385 1.377 1.712 1.617 1.712 0 0 .533-1.596-.36-2.5zm18.004 1.323s.25-1.462-1.108-1.64c-.979-.13-1.896.893-2.784 2.861-.918 2.034-1.182 3.403-1.126 4.168.12 1.658 1.639 1.741 2.533 1.177.562-.355 1.327-1.338 1.727-2.676.495-1.663.852-3.177.758-3.89zm7.343 1.61l2.174-6.487c-3.678-.038-5.737-.18-9.554-.68C23.814 14.05 18.9 13.516 17 15.61c-1.252 1.38-2.065 1.122-2.347.839-.096-.096-.047-.31-.047-.31l.081-.335c.485-2.343-1.402-3.753-3.456-3.296-1.734.385-3.279 1.457-4.875 4.74-1.596 3.282-1.86 7.158-.818 8.64 1.343 1.91 3.62 2.056 5.238.107.957-1.154 1.466-2.274 1.665-3.207-.771-.167-1.896-1.116-2.195-2.097-.298-.975-.14-1.942.578-2.404.564-.361 2.114-.57 2.754.885.559 1.27.108 2.593.108 2.593.155.12 1.222.257 1.986-.377 1.033-.856 1.763-3.002 2.865-3.605.676-.37 3.113-.232 3.113-.232s-1.058 3.478-1.677 5.37c-.396 1.21-1.31 3.573-.837 4.05 1.097 1.106 3.009-.95 3.009-.95s-.07-3.69 3.082-6.65c1.31-1.232 2.674-1.91 4.35-1.82 1.676.09 1.666 1.427 1.666 1.427s.643-.974.958-1.195c.677-.474 2.873-.232 2.873-.232s-1.927 6.002-2.268 7.007c-.203.6-.847 2.673.233 2.662 1.986-.02 3.67-2.778 4.75-5.134zm5.312-5.687L37.767 32.75s-.406 1.364-.187 1.96c.169.457.487.66 1.164.396.731-.284 1.71-.957 2.893-3.827 1.158-2.81 2.27-9.413 1.462-14.88zm64.607-.946l-1.107 3.496c1.676-2.539 5.993-2.315 5.843 0-.24 3.692-2.73 4.615-4.167 5.307-1.619.78-2.46.627-3.016.693.097.023 1.795.049 2.394.461 1.676 1.154.717 2.539 1.676 2.539.48 0 .725-.69.883-1.154.315-.923 1.033-.923 1.033-.923s1.122-.152 1.466-.087c.94.178.494.829.33 1.29-.072.202-.531 1.097-.739 1.354-.818 1.02-2.514 1.161-3.548 1.135-1.588-.04-2.298-.923-2.298-2.308 0-1.631-1.915-1.615-1.915-1.615l-1.182 3.23s-.15.717-.63.717c-.658 0-.985-.042-2.182-.042-.718 0-.54-.674-.54-.674l1.31-3.637s-2.373 4.353-4.935 4.324c-.793-.009-1.715-.017-2.394-.874-.714-.902-.487-2.121-.087-3.295.646-1.896 1.508-4.003 1.3-3.903-1.515.732-2.538.083-2.742-.023-.681.913-1.342 1.342-2.286 1.73-1.547 7.284-7.477 7.169-9.278 5.216-1.089-1.18-1.252-2.968-.73-4.98-.26.198-.765.387-1.244.395-.48.007-.935-.166-.978-.173-.258 1.03-.666 2.354-1.177 3.143-2.157 3.326-5.028 3-6.188 2.077-.665-.53-1.184-1.128-1.663-2.051A5.323 5.323 0 0167 28.898c-1.388.88-4.632 1.277-6.616-1.059-1.548-1.82-2.101-4.67-.997-8.618.958-3.425 2.916-5.625 3.88-6.53 2.265-2.123 5.138-3.098 7.244-3.001 4.118.189 5.077 2.272 5.158 3.78.45-.318.988-.648 1.627-.956 3.352-1.616 6.632-1.025 11.014-.462 6.056.778 10.815.752 16.7.02.21-.596.406-1.129.406-1.129s1.616-5.165 2.48-7.9c.449-1.42.902-2.215 1.584-2.635 1.085-.668 2.84-.506 3.483.378.519.714 1.135 2.25-.613 5.43-.803 1.459-2.336 4.132-2.863 4.727l-.379.54c6.87-1.116 8.892-2.2 8.892-2.2s-.957 2.664-2.633 4.28c-.919.884-5.097 1.67-7.661 1.89zm1.032-4.536c.22-.329 1.258-2.107 1.83-2.977 1.597-2.425 2.195-5.02 1.916-5.77-.28-.748-.904-.045-1.165.773-.6 1.881-2.044 6.408-2.58 7.974zM71.31 18.975c-.02-.815-.839-1.341-1.437-.231-.668 1.242 0 3.693 0 3.693s1.49-1.25 1.437-3.462zm16.71.204c-.72-.692-2.693-.461-4.071 2.77-.765 1.793-.985 3.358-.718 4.384.479 1.846 3.83 1.846 5.086-2.538.011-.074.048-.223.062-.297-.04 0-3.233-.165-2.993-1.78.107-.722 1.436-.461 2.633-.461.29 0 .55-.004.79-.01.042-.724-.119-1.42-.79-2.068zm5.132-.556c-.211-.581-.967-.578-1.202-.115-.549 1.081.564 1.667.532 1.692.489-.308.835-1.125.67-1.577zm10.935-3.098c-4.651.027-10.726.039-15.777-.934-6.953-1.34-9.804-1.167-11.972.922-2.155 2.077-2.766.922-2.7.63.154-.682.272-1.62.203-2.184-.152-1.242-.91-2.1-2.612-2.138-2.155-.047-4.6 1.076-6.196 4.359-1.596 3.282-2.32 7.78-1.146 9.256 1.488 1.873 4.22.1 4.273-1.012-.175-.511-1.965-5.916.971-7.48 1.45-.773 5.77.416.981 7.108-.239 1.615 3.353 5.307 5.696 1.127.479-.854.613-1.92.672-2.9-.844-1.114-1.37-2.459-.931-3.531.36-.879 1.349-.964 1.74-.827.993.346 1.194 1.622 1 3.841.213.323.508.383.871.417 1.152.108 1.536-.479 1.66-.602 1.249-2.72 3.768-4.252 5.686-4.238 3.02.02 3.776 1.907 3.865 3.789.771-.053 1.129-.188 1.27-.341-.464-.404-.723-1.173-.778-1.472-.165-.894.195-1.506.758-1.788.519-.26 1.55-.375 2.105.51.745 1.187-.52 2.603-.52 2.603.201.195.79.349 1.518-.307.714-.642 1.515-1.87 1.676-2.077.718-.922 3.335-.632 3.335-.632l-1.562 4.787c-.397 1.211-1.507 4.04-1.198 4.614.562 1.045 2.257-.78 2.257-.78 1.702-1.636 3.41-5.967 3.41-5.967s.79-2.614 1.445-4.753zm1.793 5.5l-.937 2.77s2.756.417 4.29-2.538c1.915-3.693-2.155-2.77-3.353-.231z"/></symbol><symbol viewBox="0 0 60 60" id="customizable" xmlns="http://www.w3.org/2000/svg"><path d="M46 34a1 1 0 011 1v14a1 1 0 01-2 0V35a1 1 0 011-1zM14 50a1 1 0 01-1-1v-6a1 1 0 012 0v6a1 1 0 01-1 1zm16-28a1 1 0 011 1v26a1 1 0 01-2 0V23a1 1 0 011-1z"/><path d="M59 60a1 1 0 01-1-1V4a2 2 0 00-2-2H4a2 2 0 00-2 2v52a2 2 0 002 2h49a1 1 0 110 2H4a4 4 0 01-4-4V4a4 4 0 014-4h52a4 4 0 014 4v55a1 1 0 01-1 1zM46 22a4 4 0 110 8 4 4 0 010-8zm-2 4a2 2 0 104 0 2 2 0 00-4 0zm2-16a1 1 0 011 1v6a1 1 0 01-2 0v-6a1 1 0 011-1zM14 38a4 4 0 110-8 4 4 0 010 8zm2-4a2 2 0 10-4 0 2 2 0 004 0zm-2-8a1 1 0 01-1-1V11a1 1 0 012 0v14a1 1 0 01-1 1zm16-8a4 4 0 110-8 4 4 0 010 8zm2-4a2 2 0 10-4 0 2 2 0 004 0z"/></symbol><symbol viewBox="0 0 60 60" id="dashboard" xmlns="http://www.w3.org/2000/svg"><path d="M49 42a1 1 0 010 2H5.77C10.617 52.368 19.653 57.994 30 57.994c7.616 0 14.521-3.048 19.569-7.994h-33.57a1 1 0 010-2h35.423A28.004 28.004 0 0058 29.92C58 15.433 47.052 3.516 33 2.014v-.009A1.002 1.002 0 0133 0v-.005c15.16 1.51 27 14.33 27 29.926C60 46.533 46.568 60 30 60 13.43 60 0 46.533 0 29.92 0 14.325 11.84 1.504 27-.005V0a1.001 1.001 0 110 2.005v.009C12.948 3.516 2 15.434 2 29.92c0 4.324.975 8.42 2.717 12.078zm4-11a1 1 0 01-1-1c0-12.15-9.85-22-22-22S8 17.85 8 30a1 1 0 11-2 0C6 16.743 16.745 6 30 6s24 10.744 24 24a1 1 0 01-1 1z"/><path d="M30 14a1 1 0 011 1v22a1 1 0 01-2 0V15a1 1 0 011-1z"/></symbol><symbol viewBox="0 0 56 56" id="diagram" xmlns="http://www.w3.org/2000/svg"><path d="M55.375 24a1 1 0 01-1 1H32a1 1 0 01-1-1V1.625a1 1 0 112 0V23h20.09C51.004 14.908 45.402 8.24 38 4.722c0 0-.379-.164-.548-.314A.982.982 0 0137 3.593a1 1 0 011-1 .97.97 0 01.482.142c.004 0 .008-.005.012-.003C47.068 6.666 53.472 14.515 55.397 24z"/><path d="M51.19 36.313C48.369 47.616 38.178 56 26 56 11.64 56 0 44.359 0 30 0 15.978 11.108 4.58 25 4.05v.012c.16 0 .312.038.446.105A1 1 0 0127 5v24h24a1 1 0 010 2H26.395L14.677 42.717a.986.986 0 11-1.395-1.394L25 29.605V6.062c-.015 0-.027-.007-.041-.008C12.19 6.603 1.999 17.096 1.999 30c0 13.255 10.746 24 24 24 11.178 0 20.532-7.656 23.198-18 0 0 .027-.128.07-.235a.986.986 0 01.952-.765 1 1 0 011 1c0 .103 0 .198-.028.313z"/></symbol><symbol viewBox="0 0 60 60" id="disscus" xmlns="http://www.w3.org/2000/svg"><path d="M17 23a3 3 0 110 6 3 3 0 010-6zm-1 3a1 1 0 102 0 1 1 0 00-2 0zm11-3a3 3 0 110 6 3 3 0 010-6zm-1 3a1 1 0 102 0 1 1 0 00-2 0zm11-3a3 3 0 110 6 3 3 0 010-6zm-1 3a1 1 0 102 0 1 1 0 00-2 0zm23 16a1 1 0 01-1-1V4a2 2 0 00-2-2H7a1 1 0 010-2h49a4 4 0 014 4v37a1 1 0 01-1 1z"/></symbol><symbol viewBox="0 0 11 22" id="facebook" xmlns="http://www.w3.org/2000/svg"><path d="M6.931 22.084H2.364V11.042H.08V7.235h2.283V4.951C2.364 1.848 3.653 0 7.313 0h3.048v3.806H8.457c-1.426 0-1.52.533-1.52 1.525L6.93 7.235h3.452l-.404 3.807H6.93z" opacity=".2"/></symbol><symbol viewBox="0 0 60 46" id="letter" xmlns="http://www.w3.org/2000/svg"><path d="M56 45.999H4a4 4 0 01-4-4V7a1 1 0 012 0v35a2 2 0 002 2h52a2 2 0 002-2V4a2 2 0 00-2-2H1a1 1 0 010-2h55a4 4 0 014 4v38a4 4 0 01-4 4z"/><path d="M53.692 6.276a1.002 1.002 0 010 1.417L30.854 30.53a1.005 1.005 0 01-.854.454.998.998 0 01-.854-.455L6.308 7.693a1.002 1.002 0 011.417-1.417L30 28.551 52.275 6.276a1.003 1.003 0 011.417 0z"/></symbol><symbol viewBox="0 0 34 30" id="logo" xmlns="http://www.w3.org/2000/sg"><path d="M16.4 0L0 19.052 16.4 30 33 18.851z" clip-path="url(#j1a0a)"/></symbol><symbol viewBox="0 0 38 60" id="mobile" xmlns="http://www.w3.org/2000/svg"><path d="M4 0h30a4 4 0 014 4v52a4 4 0 01-4 4H4a4 4 0 01-4-4V4a4 4 0 014-4zM2 4v44h29a1 1 0 010 2H2v6a2 2 0 002 2h30a2 2 0 002-2V12H7a1 1 0 010-2h29V4a2 2 0 00-2-2H4a2 2 0 00-2 2z"/><path d="M19 52a2 2 0 110 4 2 2 0 010-4zM16 5h6a1 1 0 010 2h-6a1 1 0 110-2zM6.285 20.356l4.073-4.073a.96.96 0 111.357 1.358l-4.073 4.072a.96.96 0 11-1.357-1.357zm0 6l10.073-10.073a.96.96 0 111.357 1.358L7.642 27.715a.96.96 0 11-1.357-1.358z"/></symbol><symbol viewBox="0 0 60 60" id="pen" xmlns="http://www.w3.org/2000/svg"><path d="M40.71 19.288c.409.409.409 1.07 0 1.478L22.8 38.677a1.045 1.045 0 01-1.478-1.477l17.91-17.912a1.045 1.045 0 011.479 0z"/><path d="M58.796 12.53L22.531 48.796a3.994 3.994 0 01-2.114 1.106.98.98 0 01-.417.097h-9a.996.996 0 01-.922-.61.997.997 0 01-.078-.39V40c0-.076.027-.144.044-.216a3.979 3.979 0 011.128-2.346L47.438 1.172a4.016 4.016 0 015.679 0l5.68 5.679a4.016 4.016 0 010 5.679zm-1.382-4.285l-5.691-5.692a2.012 2.012 0 00-2.846 0l-6.492 6.492c.14.05.27.132.382.244l3.91 3.91a1.044 1.044 0 11-1.477 1.478l-3.91-3.91a1.04 1.04 0 01-.244-.382L12.955 38.476l8.537 8.537 35.922-35.922a2.012 2.012 0 000-2.846zM12 47.999h7.522L12 40.477zM2 59a1 1 0 11-2 0V1a1 1 0 011-1h30a1 1 0 010 2H2zm5 1a1 1 0 010-2h51V29a1 1 0 012 0v30a1 1 0 01-1 1z"/></symbol><symbol viewBox="0 0 24 20" id="twitter" xmlns="http://www.w3.org/2000/svg"><path d="M23.343 2.8a9.569 9.569 0 01-2.75.755 4.804 4.804 0 002.105-2.65 9.608 9.608 0 01-3.041 1.162 4.79 4.79 0 00-8.16 4.37 13.598 13.598 0 01-9.872-5.006 4.772 4.772 0 00-.648 2.408c0 1.662.845 3.128 2.13 3.987a4.77 4.77 0 01-2.169-.599v.06a4.792 4.792 0 003.84 4.697 4.804 4.804 0 01-2.162.082 4.793 4.793 0 004.474 3.327 9.604 9.604 0 01-5.948 2.051A9.77 9.77 0 010 17.377a13.558 13.558 0 007.34 2.153c8.809 0 13.626-7.3 13.626-13.63 0-.207-.004-.414-.013-.62a9.723 9.723 0 002.39-2.479z" opacity=".2"/></symbol><symbol viewBox="0 0 60 60" id="window" xmlns="http://www.w3.org/2000/svg"><path d="M50 60H4a4 4 0 01-4-4V10a4 4 0 014-4h43a1 1 0 110 2H4a2 2 0 00-2 2v46a2 2 0 002 2h46a2 2 0 002-2V22H7a1 1 0 010-2h45V7a1 1 0 112 0v49a4 4 0 01-4 4z"/><path d="M8 12a2 2 0 110 4 2 2 0 010-4zm8 0a2 2 0 110 4 2 2 0 010-4zm8 0a2 2 0 110 4 2 2 0 010-4zm35 42a1 1 0 01-1-1V4a2 2 0 00-2-2H7a1 1 0 110-2h49a4 4 0 014 4v49a1 1 0 01-1 1z"/></symbol></svg>