<svg xmlns="http://www.w3.org/2000/svg" width="23" height="14" viewBox="0 0 23 14"><g><g><path fill="#232323" d="M10.44 1.502c.417.58.627 1.273.627 2.082 0 .833-.21 1.502-.632 2.01-.235.283-.583.543-1.041.777.696.253 1.222.654 1.577 1.203.353.551.532 1.217.532 2 0 .81-.203 1.534-.61 2.177a3.756 3.756 0 0 1-2.507 1.759 9.402 9.402 0 0 1-1.928.185H.31V.047h6.594c1.663.024 2.841.51 3.535 1.455zm-7.408.916v3.01h3.316c.592 0 1.074-.114 1.444-.34.37-.224.554-.625.554-1.197 0-.637-.245-1.057-.734-1.26-.42-.143-.958-.213-1.611-.213zm0 5.268v3.638h3.313c.591 0 1.052-.079 1.382-.239.598-.298.896-.865.896-1.702 0-.712-.29-1.2-.869-1.466-.324-.149-.779-.225-1.364-.231zm16.72-3.88a4.101 4.101 0 0 1 1.742 1.495c.415.6.683 1.295.806 2.085.07.464.1 1.133.086 2.003h-7.35c.043 1.014.394 1.722 1.056 2.13.403.254.888.38 1.455.38.6 0 1.088-.155 1.464-.464.205-.166.386-.398.543-.694h2.695c-.072.599-.399 1.207-.979 1.825-.904.981-2.17 1.471-3.796 1.471-1.343 0-2.527-.413-3.554-1.241-1.027-.825-1.54-2.175-1.54-4.04 0-1.75.464-3.09 1.39-4.024.926-.93 2.13-1.397 3.608-1.397.879 0 1.67.157 2.373.471zm-3.947 2.28c-.372.385-.608.907-.704 1.562h4.546c-.047-.701-.282-1.23-.703-1.593-.42-.364-.942-.543-1.564-.543-.678 0-1.203.19-1.575.574zm4.461-3.705H14.42V.684h5.847z"/></g></g></svg>
