<svg xmlns="http://www.w3.org/2000/svg" width="60" height="45" viewBox="0 0 60 45"><g><g><g><path fill="#2f3238" d="M23 37a4 4 0 1 1 0 8 4 4 0 0 1 0-8zm-2 4a2 2 0 1 0 4 0 2 2 0 0 0-4 0zm28-4a4 4 0 1 1 0 8 4 4 0 0 1 0-8zm-2 4a2 2 0 1 0 4 0 2 2 0 0 0-4 0zM1 0h9.778a.946.946 0 0 1 .526.047 1 1 0 0 1 .692 1.04L19.786 31h31.456l6.445-24H19a1 1 0 1 1 0-2h39.858a.999.999 0 0 1 .99.47.995.995 0 0 1 .074.917l-6.95 25.882a1 1 0 0 1-1.1.73h-32.65a.944.944 0 0 1-.53-.047 1 1 0 0 1-.688-1.04L10.214 2H1a1 1 0 1 1 0-2zm31 40h8a1 1 0 0 1 0 2h-8a1 1 0 1 1 0-2z"/></g><g><path fill="#26e6e6" d="M33 11a1 1 0 0 1 1 1v3h4v-3a1 1 0 1 1 2 0v3h3a1 1 0 0 1 0 2h-3v4h3a1 1 0 1 1 0 2h-3v3a1 1 0 1 1-2 0v-3h-4v3a1 1 0 1 1-2 0v-3h-3a1 1 0 0 1 0-2h3v-4h-3a1 1 0 0 1 0-2h3v-3a1 1 0 0 1 1-1zm5 6h-4v4h4z"/></g></g></g></svg>