<svg xmlns="http://www.w3.org/2000/svg" width="60" height="60" viewBox="0 0 60 60"><g><g><g><path fill="#2f3238" d="M49 42a1 1 0 0 1 0 2H5.77C10.617 52.368 19.653 57.994 30 57.994c7.616 0 14.521-3.048 19.569-7.994h-33.57a1 1 0 0 1 0-2h35.423A28.004 28.004 0 0 0 58 29.92C58 15.433 47.052 3.516 33 2.014v-.009c-.552 0-1-.449-1-1.003C32 .45 32.448 0 33 0v-.005c15.16 1.51 27 14.33 27 29.926C60 46.533 46.568 60 30 60 13.43 60 0 46.533 0 29.92 0 14.325 11.84 1.504 27-.005V0a1.001 1.001 0 1 1 0 2.005v.009C12.948 3.516 2 15.434 2 29.92c0 4.324.975 8.42 2.717 12.078zm4-11a1 1 0 0 1-1-1c0-12.15-9.85-22-22-22S8 17.85 8 30a1 1 0 1 1-2 0C6 16.743 16.745 6 30 6s24 10.744 24 24a1 1 0 0 1-1 1z"/></g><g><path fill="#26e6e6" d="M30 14a1 1 0 0 1 1 1v22a1 1 0 0 1-2 0V15a1 1 0 0 1 1-1z"/></g></g></g></svg>